<svg xmlns="http://www.w3.org/2000/svg" width="256" height="256"><path fill-opacity=".016" d="M0 128.004v128.004l128.25-.254 128.25-.254.254-127.75L257.008 0H0v128.004m.485.496c0 70.4.119 99.053.265 63.672.146-35.38.146-92.98 0-128C.604 29.153.485 58.1.485 128.5" fill="#1976D2" fill-rule="evenodd"/><path fill-opacity=".203" d="M127.351 1.474c.311.81-.133 1.864-.987 2.342C124.275 4.985 134.308 7 142.216 7c7.29 0 10.7 1.701 15.183 7.572C160.235 18.286 171 37.791 171 39.215c0 .212-3.488-.391-7.75-1.341-15.64-3.487-30.673-5.207-40.138-4.594-5.012.324-9.112.263-9.112-.136 0-1.506 7.042-25.354 8.034-27.208.684-1.278.695-1.936.03-1.936-.895 0-4.503 10.629-8.249 24.298l-1.315 4.798-19 .367c-10.45.201-20.349.703-21.998 1.116-2.831.707-2.643.347 3.353-6.415C78.348 24.224 80.88 21 80.481 21s-.166-.675.519-1.5.81-1.5.277-1.5c-1.224 0-3.446 2.669-5.304 6.371-.792 1.579-2.095 3.122-2.895 3.429-2.287.878-7.319 6.941-10.328 12.446-3.274 5.99-3.296 6.116-.816 4.789C62.998 44.466 65.22 44 66.872 44c4.62 0 15.964 2.876 20.528 5.204 3.64 1.857 5.62 2.066 17.79 1.877 18.859-.294 18.256-.754 17.405 13.277-.702 11.567-3.125 19.096-7.385 22.952-2.345 2.122-7.279.91-8.821-2.167-4.707-9.396-15.402-10.712-20.467-2.517-2.798 4.528-1.872 10.578 2.252 14.702 2.86 2.86 2.894 3.01 1.379 6.203-.854 1.799-1.553 4.38-1.553 5.735 0 3.107 3.565 7.734 5.959 7.734C95.888 117 104 129.487 104 132.457c0 3.123-2.897 8.476-6.99 12.916-2.759 2.993-6.124 8.874-10.076 17.609C83.67 170.195 81 176.325 81 176.604c0 .28 2.078 1.428 4.619 2.552 4.588 2.029 4.615 2.07 4.11 6.193-.279 2.283-.788 4.826-1.13 5.652-.689 1.663 6.665 4.858 16.104 6.997 5.455 1.236 7.297.843 7.297-1.557 0-1.011-1.176-1.441-3.941-1.441-2.168 0-4.219-.45-4.559-1-.38-.615 1.29-1 4.342-1 4.556 0 5.12-.27 6.915-3.312 1.78-3.017 2.614-3.427 9.349-4.592 4.066-.703 8.069-1.357 8.894-1.453 1.254-.146 1.447-1.978 1.18-11.159-.417-14.282-1.397-20.483-6.451-40.806-3.974-15.981-4.103-16.962-2.582-19.611 1.343-2.34 1.534-5.471 1.186-19.428L125.918 76h5.384l-.643-9.25c-.353-5.087-.926-10.272-1.273-11.522-.581-2.093-.428-2.194 1.952-1.29 1.803.686 5.087.542 10.872-.476 10.64-1.873 22.396-1.865 27.732.018 3.891 1.372 4.388 1.34 6.876-.442 1.475-1.057 5.104-2.694 8.064-3.638 4.358-1.39 5.755-1.483 7.347-.489 3.233 2.019 2.985.73-1.056-5.499-6.942-10.701-17.652-22.748-23.296-26.206C150.836 6.767 149.215 6 144.194 6c-2.703 0-6.968-.281-9.477-.625-3.712-.509-4.674-1.069-5.159-3C129.23 1.069 128.472 0 127.874 0c-.598 0-.834.663-.523 1.474M107 4.989c-5.464.446-9.929 1.429-12.5 2.753-5.155 2.654-11.992 8.112-12.026 9.601-.015.636-.379 1.72-.809 2.407-1.22 1.948.163 1.483 3.768-1.267 4.106-3.131 19.693-9.951 28.475-12.459 7.046-2.012 6.342-2.117-6.908-1.035m-6 1.947c-4.357.879-9.358 3.441-14.296 7.322-4.435 3.485-4.25 4.979.222 1.795 1.673-1.191 7.211-3.927 12.308-6.08 8.876-3.75 9.351-4.567 1.766-3.037m61.064 12.55c2.167 3.567 5.386 9.417 7.153 13 1.767 3.583 3.678 6.522 4.248 6.531.569.009 4.733 1.517 9.253 3.35l8.218 3.333-1.718-2.934c-3.215-5.49-14.302-18.701-18.517-22.065C166.943 17.702 159.497 13 158.505 13c-.209 0 1.392 2.919 3.559 6.486M123.158 46c0 1.375.227 1.938.504 1.25.278-.687.278-1.812 0-2.5-.277-.687-.504-.125-.504 1.25m3.439-.156c-.346.56-.142 1.319.453 1.687 1.538.95 2.53-.351 1.246-1.635-.718-.718-1.277-.735-1.699-.052m-5.891 34.527c-.987 2.4-2.846 5.352-4.132 6.56l-2.338 2.196 2.132 3.928c1.173 2.161 2.448 3.932 2.835 3.937 1.663.019 3.715-7.042 3.994-13.744.167-3.989.078-7.25-.197-7.247-.275.004-1.307 1.97-2.294 4.37M128 80c-.698 1.685-1.044 3.289-.769 3.564.275.275 1.071-.879 1.769-2.564s1.044-3.289.769-3.564c-.275-.275-1.071.879-1.769 2.564m-27.011 8.513c-.704.848-2.9 1.487-5.111 1.487-3.712 0-3.877.139-3.863 3.25.018 3.758.568 4.738 3.958 7.058 3.014 2.063 7.365 2.195 8.961.271 1.666-2.006.771-11.605-1.183-12.699-.998-.558-1.956-.338-2.762.633m20.466 13.942c-3.363 3.362-3.269 7.124.2 7.995 3.133.786 4.402-.672 4.113-4.725-.128-1.799-.649-2.601-1.483-2.281-1.618.621-1.667-.662-.085-2.244.66-.66.865-1.2.455-1.2s-1.85 1.105-3.2 2.455M118 113.686c0 1.008.932 2.415 2.072 3.127 1.926 1.203 2.049 1.098 1.75-1.501-.37-3.21-3.822-4.678-3.822-1.626m-11.925 1.052c-4.916 2.529-5.659 4.23-3.673 8.415 2.448 5.157 11.037 14.103 13.145 13.69 1.719-.336 3.786-4.781 5.5-11.823.649-2.671.474-3.892-.755-5.25-.881-.974-1.928-1.77-2.326-1.77-1.148 0-3.228 5.767-2.503 6.94.36.583.178 1.06-.404 1.06-.582 0-1.065-.787-1.072-1.75-.007-.963-1.019-3.893-2.25-6.512l-2.237-4.763-3.425 1.763m-21.22 56.793-1.63 4.531 4.077 1.97c6.081 2.938 15.507 4.964 21.589 4.641 3.105-.165 5.842.196 6.452.85.791.846 3.109.802 9.109-.174 4.426-.72 8.323-1.318 8.659-1.329.337-.011.407-1.09.157-2.397-.435-2.279-.723-2.356-6.932-1.858-3.563.286-9.034-.034-12.157-.712-3.124-.678-7.85-1.695-10.503-2.26-2.653-.566-7.086-2.55-9.851-4.411-2.764-1.86-5.547-3.382-6.183-3.382-.637 0-1.891 2.039-2.787 4.531m1.666 23.435c-.545.882 5.984 6.328 8.794 7.335.652.234.852.782.446 1.218-.407.436-3.062-.65-5.899-2.414-3.47-2.157-5.49-2.877-6.168-2.199-1.393 1.393.734 3.761 5.608 6.248 2.665 1.36 4.264 1.68 4.952.992.687-.687 1.748-.536 3.283.47 1.247.817 4.207 1.576 6.578 1.685 3.4.157 4.387-.171 4.671-1.551.265-1.284-.284-1.75-2.063-1.75-3.339 0-8.723-1.978-8.723-3.205 0-.596.715-.685 1.75-.216 2.578 1.169 9.51 1.085 9.922-.12.39-1.143-10.397-3.747-11.837-2.857-.492.304-2.874-.607-5.293-2.025-4.94-2.895-5.187-2.961-6.021-1.611m-6.208 9.662c-1.032 2.688 7.872 8.282 11.169 7.017 2.49-.955 1.735-2.418-1.861-3.605-1.859-.613-4.178-1.998-5.155-3.078-2.162-2.389-3.329-2.483-4.153-.334m14.867 5.585c.655 4.529 12.82 6.371 12.82 1.941 0-1.431-.612-1.718-2.938-1.376-1.615.237-4.384-.291-6.153-1.174-4.085-2.038-4.11-2.033-3.729.609m-16.719-.15c-1.481 2.397 6.782 7.825 10.021 6.582 1.887-.724 2.001-2.645.158-2.645-.749 0-3.019-1.125-5.045-2.5-4.209-2.857-4.25-2.868-5.134-1.437m-.882 6.592c-.826 2.153.15 3.334 4.13 4.997 2.672 1.116 3.789 1.179 4.878.275 1.928-1.599 1.775-2.926-.337-2.931-.963-.002-3.176-.873-4.918-1.935-2.751-1.677-3.245-1.731-3.753-.406m17.583.453c.27 1.912 1.184 2.568 4.569 3.279 3.089.649 4.65.541 5.783-.399 2.38-1.975 1.314-3.184-3.051-3.464-2.18-.14-4.79-.603-5.801-1.03-1.527-.644-1.781-.371-1.5 1.614m-18.576 5.753c-.993 1.606.552 4.241 3.042 5.188 2.499.95 5.372.332 5.372-1.156 0-1.793-.546-2.282-2.825-2.525-1.279-.136-2.926-.746-3.661-1.356-.825-.685-1.562-.743-1.928-.151M95 223.886c0 1.669.614 2.114 2.918 2.114 1.605 0 3.626.272 4.492.604.951.365 1.823-.047 2.205-1.043.83-2.164.686-2.255-4.865-3.081-4.391-.654-4.75-.548-4.75 1.406m-21.818 6.944c-2.688 2.511-2.858 3.131-2.651 9.677.301 9.544.161 8.973 3.058 12.416 2.332 2.772 6.356 4.224 6.447 2.327.019-.412.17-3.274.333-6.359.295-5.547.26-5.623-3.036-6.815C75.5 241.413 74 240.45 74 239.935c0-1.209 1.222-1.181 4.602.104 2.059.783 2.933.721 3.55-.25 1.325-2.089 1.047-2.413-3.152-3.671-2.2-.659-4-1.683-4-2.275 0-.658.874-.803 2.25-.372 4.641 1.453 6.237 1.123 6.588-1.362.249-1.764-.045-2.243-1.126-1.829-.805.309-2.632-.045-4.06-.786-2.376-1.232-2.842-1.119-5.47 1.336m21.333-1.854c-1.227 1.985 1.614 4.024 5.607 4.024 3.211 0 3.878-.344 3.878-2 0-1.543-.667-2-2.918-2-1.605 0-3.585-.256-4.399-.568-.814-.313-1.79-.068-2.168.544m-1.765 5.742c-3.009 3.334-1.734 10.257 1.65 8.959.994-.382 2.929.551 5.103 2.46 3.868 3.396 9.338 5.091 11.863 3.678 2.561-1.433 1.888-3.087-2.49-6.116-3.133-2.169-4.357-2.545-5.418-1.664-2.59 2.15-3.502-.092-.951-2.339 1.688-1.488 2.212-2.629 1.625-3.54-.714-1.108-1.439-1.049-4.114.335-3.372 1.744-4.581 1.311-5.171-1.851-.335-1.794-.41-1.791-2.097.078" fill="#1976D2" fill-rule="evenodd"/><path fill-opacity=".515" d="M72.25 34.983c-1.787.421-3.25.571-3.25.334 0-1.185-4.26 2.787-6.449 6.012-2.657 3.915-2.574 4.289.575 2.604 2.529-1.354 17.579 1.433 23.31 4.317 3.309 1.665 6.26 2.015 18.5 2.197 8.01.119 15.306.548 16.213.953 2.176.972 2.669 5.908 1.522 15.235-.731 5.948-.651 7.759.371 8.391 1.058.654 1.082 2.837.129 11.639-1.513 13.968-1.503 14.4.329 13.697 1.665-.639 2.1 1.174.475 1.98-.564.279-.451.388.25.242.925-.193 1.29-2.987 1.331-10.175.091-16.054.101-16.106 3.068-16.851 2.613-.656 2.621-.691 1.943-7.858-.374-3.96-.946-8.939-1.27-11.064-.567-3.718-.499-3.834 1.807-3.093 2.924.941 2.685.952 11.835-.541 9.421-1.538 27.171-.986 29.463.917 1.424 1.182 1.834 1.144 2.879-.267 1.658-2.237 12.486-5.913 15.929-5.408 1.535.225 2.79.233 2.79.018 0-1.157-16.093-7.636-19.5-7.851-2.2-.139-5.242-.729-6.759-1.31-1.517-.582-8.942-1.947-16.5-3.033-11.437-1.644-18.938-1.964-44.741-1.912-17.05.035-32.463.407-34.25.827m53.738 5.838c-2.081.67-2.955 2.242-2.973 5.346-.017 3.087 1.635 3.98 4.485 2.425 1.1-.601 2.092-1.109 2.205-1.13.113-.021-.343-1.632-1.012-3.579-.824-2.395-1.699-3.386-2.705-3.062m-1.424 2.886c-.542 1.425-.428 1.54.56.56.684-.679.991-1.486.683-1.793-.308-.308-.867.247-1.243 1.233m-34.265 35.21c-5.035 3.137-6.435 6.726-4.938 12.666.848 3.364 1.934 5.229 3.439 5.904 2.59 1.162 2.692 2.091.743 6.755-2.154 5.155-.475 10.471 3.881 12.291 2.305.963 4.409 3.253 7.048 7.67 5.4 9.038 5.022 11.408-3.386 21.254-2.797 3.276-5.086 6.296-5.086 6.712 0 .415-1.53 4.034-3.4 8.043-1.87 4.008-4.298 9.375-5.394 11.926l-1.994 4.637 2.523 1.15c1.388.633 2.724.949 2.97.704.245-.246-.488-.743-1.63-1.105-2.56-.813-2.564-1.217-.064-7.049l2.01-4.691 2.74 1.807c10.172 6.71 20.034 9.444 34.9 9.673l8.161.126.917 3.055c.681 2.269.821.998.545-4.945-.65-13.971-2.275-24.551-6.334-41.24-2.173-8.932-4.011-17.707-4.086-19.5-.111-2.66-.212-2.8-.549-.76-.227 1.375-.659 3.175-.959 4-.3.825-.66 3.3-.799 5.5-.356 5.62-4.029 13.508-6.271 13.468-2.309-.041-4.021-1.455-8.434-6.968-5.23-6.533-6.895-10.171-5.662-12.375.856-1.53 6.427-4.625 8.324-4.625.318 0 1.624 2.258 2.903 5.018l2.325 5.019 1.272-3.071c.859-2.072 1.759-2.883 2.77-2.495 1.201.46 1.263.29.311-.857-1.296-1.561-.563-10.686 1.119-13.947.662-1.285.517-2.332-.486-3.5-.787-.917-2.462-3.547-3.723-5.845-2.647-4.825-6.231-6.332-9.032-3.798-1.356 1.228-1.599 2.292-1.001 4.378 1.062 3.705-1.326 9.56-3.551 8.706-.871-.334-2.423-.608-3.447-.608-3.29 0-6.847-4.15-7.157-8.352l-.284-3.852 4.287-.32c2.357-.176 4.938-.86 5.733-1.52 1.107-.919 1.778-.926 2.858-.03 2.225 1.847 2.883-.457 1.109-3.887-3.124-6.042-10.021-8.362-15.221-5.122m.562 5.142-2.361 2.06 2.75-1.675c1.513-.921 2.75-1.847 2.75-2.059 0-.781-.835-.335-3.139 1.674m-1.498 96.416c1.695 1.283 1.752 1.875.638 6.522-.675 2.811-1.063 5.231-.864 5.377 2.028 1.485 12.281 4.775 16.385 5.258 6.673.784 8.484-1.209 1.985-2.183-6.478-.972-6.591-2.449-.187-2.449 5.134 0 5.509-.172 6.718-3.091.704-1.7 2.221-3.472 3.371-3.937 1.583-.64 1.686-.861.424-.909-.916-.034-1.821-.528-2.01-1.095-.19-.568-4.165-1.2-8.834-1.405-9.761-.428-12.918-.919-15.799-2.461-2.896-1.55-4.054-1.314-1.827.373M123 184.019c-1.553.509-.227.608 3.5.261 3.3-.307 6.188-.72 6.417-.919.806-.699-7.448-.152-9.917.658m-36 11.389c0 .775 2.024 2.687 4.498 4.25 2.474 1.563 4.499 3.394 4.5 4.069.004 2.477 5.764 4.825 10.752 4.384 2.352-.209 1.325-3.111-1.101-3.111-3.288 0-8.649-1.992-8.649-3.214 0-.573.985-.749 2.25-.402 6.378 1.749 9.75 1.872 9.75.353 0-1.572-4.753-2.842-10.484-2.802-1.641.012-4.669-1.094-6.728-2.457-4.342-2.873-4.788-2.973-4.788-1.07m-3.463 3.531c-.772 1.25 4.185 5.768 7.656 6.978 1.924.671 2.975.62 3.462-.168.384-.622.199-1.298-.413-1.502-.612-.204-2.938-1.693-5.169-3.309-4.502-3.261-4.709-3.336-5.536-1.999m-2.894 5.549c-.279.728.249 1.987 1.174 2.797 2.698 2.363 8.157 4.849 9.212 4.197 1.556-.962 1.126-2.298-.953-2.958-1.059-.336-3.5-1.68-5.425-2.986-2.646-1.796-3.624-2.052-4.008-1.05M79 210.849c0 3.62 9.605 7.562 10.724 4.401.251-.709-.358-1.25-1.409-1.25-1.018 0-3.53-1.141-5.583-2.536-3.467-2.356-3.732-2.4-3.732-.615m16.423-.724c-1.195 1.933 1.548 3.29 6.737 3.333 3.253.026 5.304-.418 5.576-1.208.291-.845-.71-1.25-3.088-1.25-1.935 0-4.656-.433-6.047-.962-1.693-.643-2.745-.614-3.178.087m-.423 6.2c0 2.37 2.38 3.675 6.7 3.675 3.156 0 4.3-.399 4.3-1.5 0-.993-.993-1.5-2.935-1.5-1.614 0-4.089-.439-5.5-.975-1.922-.731-2.565-.656-2.565.3m-17 1.514c0 3.322 8.212 5.656 9.362 2.661.407-1.063-.089-1.5-1.702-1.5-1.253 0-3.151-.661-4.219-1.468-2.601-1.967-3.441-1.892-3.441.307m17.208 6.028c.364 1.927 7.451 2.874 9.107 1.218 1.455-1.455.885-1.744-4.616-2.335-4.063-.437-4.753-.265-4.491 1.117M77 224.193c0 2.226 2.159 3.807 5.2 3.807 3.395 0 3.825-2.544.55-3.255-1.237-.268-3.037-.819-4-1.223-1.186-.499-1.75-.283-1.75.671m-2.648 5.8c-3.251 1.312-3.757 2.814-3.527 10.474.258 8.601 1.596 12.182 5.259 14.076 3.391 1.754 3.665 1.386 4.026-5.415.274-5.166.178-5.388-2.913-6.687-3.989-1.677-4.589-4.921-.632-3.416 3.593 1.366 5.435 1.215 5.435-.446 0-.781-1.38-1.723-3.068-2.094-1.687-.37-3.317-1.326-3.623-2.122-.793-2.066.384-2.863 2.112-1.429 1.779 1.477 5.764 1.046 6.334-.684.256-.779-.54-1.25-2.113-1.25-1.388 0-2.802-.45-3.142-1-.724-1.171-1.26-1.172-4.148-.007m20.648.43c0 1.652 3.682 2.978 6.671 2.402 1.006-.194 1.829-1.021 1.829-1.839 0-1.033-1.294-1.58-4.25-1.793-3.292-.239-4.25.039-4.25 1.23m-3.142 5.989c-1.511 3.317.236 7.873 2.662 6.942.963-.37 3.19.685 5.691 2.695 3.035 2.439 5.151 3.321 8.097 3.376 5.426.102 5.685-1.773.682-4.931-3.343-2.11-4.423-2.379-5.608-1.396-1.155.958-1.724.951-2.674-.036-.951-.986-.728-1.578 1.042-2.779 2.254-1.53 3.088-4.283 1.297-4.283-.524 0-2.152.546-3.617 1.214-2.365 1.077-2.875.955-4.529-1.088l-1.864-2.302-1.179 2.588M75 246c0 .55.477 1 1.059 1s.781-.45.441-1-.816-1-1.059-1-.441.45-.441 1" fill="#1976D2" fill-rule="evenodd"/><path fill-opacity=".979" d="M73.597 35.082c-6.418.962-8.111 2.055-10.989 7.101-1.041 1.824-1.288 2.755-.55 2.067.738-.687 2.547-1.25 4.019-1.25 4.353 0 17.12 3.125 21.263 5.205 3.219 1.616 6.267 1.958 18.832 2.111 12.683.156 15.178.44 16.206 1.846 1.385 1.896 1.489 33.68.139 42.588-.732 4.827-.637 5.25 1.176 5.25 1.859 0 1.967-.697 1.889-12.25-.079-11.83-.008-12.261 2.083-12.558 1.191-.17 2.363-.845 2.603-1.5.472-1.284-.81-14.671-1.778-18.563-.552-2.222-.378-2.331 2.774-1.739 1.849.347 7.159-.041 11.799-.861 10.758-1.903 20.302-1.925 26.488-.064 4.168 1.255 5.09 1.265 6.411.07 1.941-1.757 6.373-3.476 11.538-4.475l4-.773-7-3.292c-3.85-1.811-8.35-3.389-10-3.507-1.65-.118-6.375-.922-10.5-1.785-17.439-3.651-29.824-4.981-40.244-4.324-5.641.357-10.706.59-11.256.52-5.044-.644-34.299-.506-38.903.183m50.606 6.174c-3.793 4.57-1.607 9.796 3.185 7.613 2.685-1.223 3.412-3.257 1.571-4.394-.572-.354-.767-1.505-.432-2.559.457-1.44.124-1.916-1.337-1.916-1.07 0-2.414.565-2.987 1.256M88.077 81.077c-3.299 3.298-3.754 5.945-2.068 12.014.613 2.206 1.915 4.009 3.379 4.676 2.354 1.073 2.378 1.029 2.03-3.841L91.067 89h4.407c2.425 0 4.714-.495 5.088-1.101.388-.627 1.924-.852 3.574-.522l2.892.579-1.494-2.89c-3.898-7.538-12.046-9.4-17.457-3.989m4.518 1.45c-2.982 1.555-5.507 4.242-5.563 5.919-.018.521 1.431-.433 3.218-2.118 1.787-1.686 4.15-3.56 5.25-4.166 3.072-1.691.393-1.354-2.905.365m14.581 7.13c-.82.877-1.034 2.584-.608 4.853.468 2.495.165 4.248-1.054 6.109-1.466 2.238-2.215 2.529-5.236 2.039-1.939-.315-4.347-1.316-5.351-2.224-1.719-1.556-1.943-1.457-3.872 1.707-3.727 6.114-1.89 13.859 3.288 13.859 1.728 0 3.641 2.661 8.327 11.583l2.67 5.084-2.302 4.755c-1.266 2.615-3.843 6.403-5.727 8.416-3.008 3.216-8.148 12.704-9.684 17.878-.529 1.779 3.093 4.619 10.99 8.619 5.776 2.925 26.336 5.646 31.974 4.232 2.289-.575 2.409-.995 2.409-8.455 0-4.318-.663-11.621-1.473-16.231-1.464-8.334-7.258-31.945-8.027-32.714-.221-.222-.662.888-.979 2.465-.969 4.819-3.822 13.397-4.983 14.985-.841 1.151-1.697 1.273-3.667.524-2.811-1.069-10.188-9.734-12.671-14.883-1.491-3.093-1.457-3.356.741-5.695 1.267-1.349 3.626-2.914 5.242-3.477 2.857-.996 3.001-.887 5.248 3.963l2.311 4.988 1.062-2.769c1.858-4.843 2.489-7.677 2.396-10.763-.049-1.653.584-4.037 1.407-5.299 1.383-2.12 1.303-2.525-1.055-5.327-1.404-1.668-2.552-3.603-2.552-4.301 0-3.215-6.702-6.193-8.824-3.921m-16.435 95.014c-.299 2.106-.853 4.594-1.23 5.529-.795 1.97 3.438 4.128 12.489 6.368 6.649 1.645 9 1.758 9 .432 0-.55-1.013-1.006-2.25-1.014-3.311-.02-6.75-1.091-6.75-2.103 0-.485 2.206-.883 4.901-.883 4.542 0 5.053-.257 6.968-3.502 2.477-4.199 1.861-6.898-1.389-6.082-2.171.545-14.769-.762-19.088-1.98-1.825-.515-2.18-.081-2.651 3.235m-3.523 10.496c.799 2.419 8.683 7.332 9.867 6.148.763-.763 2.381-.678 5.61.294 6.265 1.885 7.88.41 1.756-1.606-2.723-.896-5.343-1.298-5.823-.894-1.085.915-3.047.211-7.989-2.868-2.317-1.444-3.685-1.873-3.421-1.074M84 199.438c0 2.259 7.545 6.963 9.725 6.062 1.475-.609 1.522-.823.275-1.265-.825-.292-3.412-1.836-5.75-3.431-3.226-2.201-4.25-2.53-4.25-1.366m-3 5.392c0 3.266 9.719 8.302 10.69 5.539.218-.622-.713-1.409-2.069-1.749-1.357-.341-3.852-1.785-5.544-3.209-2.888-2.429-3.077-2.465-3.077-.581m15.417-.695c-.706 1.141 5.672 3.865 9.051 3.865 2.809 0 3.564-1.974.782-2.044-.963-.024-3.443-.648-5.511-1.386-2.151-.767-4.002-.954-4.322-.435M96 210.49c0 1.822 3.878 3.51 8.065 3.51 1.942 0 2.935-.507 2.935-1.5 0-1.053-1.063-1.5-3.566-1.5-1.961 0-4.436-.466-5.5-1.035-1.528-.818-1.934-.708-1.934.525m-17 .355c0 2.323 8.398 6.939 9.469 5.205.297-.481-1.544-2.039-4.09-3.462-5.138-2.872-5.379-2.95-5.379-1.743m-1 6.698c0 1.644 1.973 3.161 5.146 3.958 4.442 1.114 3.965-.945-.721-3.118-3.004-1.392-4.425-1.662-4.425-.84m17.582-.191c.664 1.73 6.476 3.223 8.91 2.289 2.668-1.024 1.607-2.641-1.742-2.655-1.787-.007-4.269-.286-5.515-.62-1.789-.479-2.136-.272-1.653.986M77 224.486c0 1.895 4.277 4.005 6.436 3.177 2.26-.867 1.922-2.663-.502-2.663-1.136 0-2.936-.466-4-1.035-1.527-.818-1.934-.708-1.934.521m19-.595c0 .939 3.383 2.073 6.25 2.095.963.008 1.75-.587 1.75-1.322 0-.866-1.407-1.391-4-1.493-2.2-.086-4 .238-4 .72m-21.801 6.433c-2.153.961-4.541 6-3.389 7.153.356.355.656 3.282.668 6.504.018 4.826.455 6.318 2.478 8.472 3.678 3.915 5.338 2.986 5.706-3.195.308-5.17.263-5.263-3.263-6.736-2.061-.861-3.386-2.029-3.129-2.758.479-1.359 1.666-1.413 5.98-.273 2.099.554 2.75.371 2.75-.771 0-.92-1.351-1.751-3.5-2.154-2.897-.543-3.5-1.09-3.5-3.168 0-2.396.103-2.44 2.223-.955 2.675 1.874 5.777 2.036 5.777.302 0-1.837-6.254-3.557-8.801-2.421m20.801.065c0 .886.638 1.611 1.418 1.611.78 0 2.018.22 2.75.489 1.4.515 4.614-1.045 3.803-1.845-.259-.256-2.158-.781-4.221-1.166-3.072-.574-3.75-.409-3.75.911m-2.882 6.391c-1.427 2.665.5 7.782 2.351 6.245.784-.65 2.346.022 4.858 2.093 2.036 1.678 5.276 3.486 7.201 4.017 6.334 1.749 7.465-1.309 1.817-4.914-2.769-1.767-3.882-2.02-4.958-1.127-1.054.874-1.761.841-2.942-.14-1.378-1.143-1.244-1.539 1.166-3.461 3.461-2.759 1.48-4.438-2.308-1.956-2.52 1.651-2.667 1.632-4.333-.577l-1.725-2.287-1.127 2.107M74.5 246c.34.55 1.068 1 1.618 1s.722-.45.382-1c-.34-.55-1.068-1-1.618-1s-.722.45-.382 1" fill="#1976D2" fill-rule="evenodd"/></svg>